<?xml version="1.0" encoding="utf-8"?>
<!-- Generator: Adobe Illustrator 26.0.1, SVG Export Plug-In . SVG Version: 6.00 Build 0)  -->
<svg version="1.1" id="Ebene_1" xmlns="http://www.w3.org/2000/svg" xmlns:xlink="http://www.w3.org/1999/xlink" x="0px" y="0px"
	 viewBox="0 0 3427.2 2203.2" style="enable-background:new 0 0 3427.2 2203.2;" xml:space="preserve">
<style type="text/css">
	.st0{fill:#FFFFFF;}
	.st1{fill:#0F1015;}
	.st2{fill:#41B38B;}
	.st3{fill:#DAEDE7;}
</style>
<g>
	<path class="st0" d="M865.8,1990.9h14.4v212.3h-14.4c-176.3,0-325-115.1-376.5-274.6H350.2v260.2H137.9v-687.1H0v-212.3h843v293.8
		c0,117.5-60,221.8-149.9,284.2C717.1,1939.3,785.5,1990.9,865.8,1990.9z M350.2,1716.3h147.5c73.1,0,133.1-60,133.1-133.1v-81.5
		H350.2V1716.3z"/>
	<path class="st0" d="M1693.2,1536.4v652.3h-494.1c-136.7,0-247-111.5-247-247v-652.4h494.1
		C1582.9,1289.4,1693.2,1400.9,1693.2,1536.4z M1481,1536.4c0-19.2-15.6-34.8-34.8-34.8h-281.8v440.1c0,19.2,15.6,34.8,34.8,34.8
		H1481V1536.4z"/>
	<path class="st0" d="M2527.9,2188.8h-212.3c0-143.9-117.5-260.2-260.2-260.2h-42v260.2h-212.3v-899.4h705.1v281.8
		c0,115.1-57.6,213.5-143.9,272.2C2463.1,1923.8,2527.9,2044.9,2527.9,2188.8z M2013.4,1728.3h147.5c73.1,0,133.1-60,133.1-133.1
		v-93.5h-280.6V1728.3z"/>
	<path class="st0" d="M2623.8,1289.4h803.4v899.4h-211.1v-315.4h-247c-8.4,183.5-160.7,329.8-345.4,329.8v-212.3
		c68.4,0,124.7-51.6,131.9-117.5h-131.9v-190.7h133.1v-181.1h-133.1V1289.4z M3216.2,1501.7h-247v181.1h247V1501.7z"/>
</g>
<g>
	<path class="st1" d="M2686.4,489.1L1761.8,22.4c-29-14.6-61.6-22.4-94.2-22.4c-32.3,0-64.5,7.6-93.2,21.9l-1.1,0.6l0,0L648.9,489.1
		c-38.4,19.3-61.1,57.5-59.4,99.8c1.7,42.3,27.6,78.6,67.5,94.7c4.6,1.8,9.3,3.7,14.2,5.6c34.1,13.1,75.1,26.8,119.7,40
		c0.3,0.1,0.7,0.2,1,0.3l29.9,8.8l0.2-0.2c80.6,22.5,215.6,55.5,387.7,80c-4.2,44.4-22.5,204.1-22.5,204.1l-14.4,56.8c0,0,0,0,0,0
		c-2.3,1.8-4.6,3.7-6.9,5.7c0,0-0.1,0.1-0.1,0.1c-4.6,4.1-9,8.8-13.3,14c-0.1,0.1-0.1,0.2-0.2,0.3c-1.4,1.7-2.7,3.3-4.1,5
		c0,0-25.3,30-31.6,41.5c-14.1,25.7-11.8,56.2-11.8,56.2l0.8,5.4c0.2,1.5,26,150.3,252.6,270.4c11.4,6.1,113.5,59.2,193.9,59.2
		c22.1,0,41.3-4.1,57.7-12.2l5.8-0.6l14.9-12.8c0.1-0.1,0.2-0.1,0.3-0.2c0.2-0.1,0.3-0.3,0.4-0.4c2.5-2.2,4.9-4.5,7.2-7
		c0.6-0.6,1.2-1.3,1.8-1.9c2.2-2.5,4.2-5.1,6.2-7.9c0.5-0.7,1-1.4,1.4-2.1c1.9-2.9,3.7-5.9,5.3-9c0.2-0.4,0.3-0.7,0.5-1.1
		c1.7-3.4,3.2-7,4.5-10.6c0,0,0,0,0,0c64.3,16.3,127.8,27.8,178.4,27.8c4.8,0,9.6-0.1,14.2-0.3c58.9-2.6,112.1-30.5,149.6-78.5
		c21.5-27.4,31.1-52.3,32.8-57l0.6-1.7c8.2-0.5,14.9-1.1,19.6-1.8c54.4-7.5,104.5-69.3,137-119.8l18.5-28.8l0.5-0.9
		c11.2-17.8,26.6-32.6,44.8-43.1l0,0c55.4-31.7,121.1-57.1,138.4-63.3c57.3-20.7,129.9-8,188.5-10.1c21.7-0.8,41-13.6,50.2-33.2v0
		c14.3-30.5-0.4-66.7-31.9-78.6l-70.2-26.6c19.3-23.3,89-93.3,173.2-105.6c29.5-4.3,52.1-28.4,54.7-58.1v0
		c2.7-31.2-17.3-59.9-47.6-67.9c-33.1-8.7-70.5-16.9-91.1-17.8c23.1-7.8,43.2-15.2,59.9-22c39.9-16.1,65.7-52.4,67.5-94.7
		C2747.4,546.6,2724.7,508.3,2686.4,489.1z"/>
	<g>
		<path class="st2" d="M2654,623.6c-154,62-537.5,162.7-986.4,162.7c-353.3,0-666.1-62.4-858.4-119.2c-52-15.3-95.2-30.3-128-43.5
			c-34.6-13.9-36.5-60-3.3-76.7l924.5-466.7l0.2-0.1c40.6-20.6,89.4-20.6,130.1,0l924.6,466.8C2690.5,563.6,2688.6,609.6,2654,623.6
			z"/>
		<path class="st3" d="M1602.4,80.2L809.2,667.1c-52-15.3-95.2-30.3-128-43.5c-34.6-13.9-36.5-60-3.3-76.7L1602.4,80.2z"/>
	</g>
	<g>
		<path class="st2" d="M2135.7,1204.6c0,0-55.1,85.7-91.4,90.7c-36.4,5.1-236.9,5.9-236.9,5.9c35.6-17.6,118.8-65.8,180.6-134.9
			l-7.7,88.2c0,0,45.7-57.2,73.9-142.9C2085.2,1086,2135.7,1204.6,2135.7,1204.6z"/>
		<path class="st2" d="M1972.1,1341c0,0-6.6,18.4-22.8,38.9c-19,24.4-51.4,51.7-101.6,53.9c-133.3,5.8-402.7-96.7-457.2-122.5
			c-61.6-29.1-74.3-6.9-74.3-6.9c83.6,74.2,193.5,116.8,274.8,140c2.3,0.7,4.7,1.3,7,1.9c-0.1,0.3-0.2,0.5-0.3,0.8
			c-1.6,6.2-4.7,11.1-9.1,14.9c-34.7,30-146.3-12.7-200.1-41.3c-178.4-94.5-216.6-207.6-219-223.3c0,0,1.6-3.7,4.4-9.6
			c5-10.7,14.1-28.4,24.1-42.2c0.5-0.7,1-1.4,1.5-2.1c6.8-8.9,14-15.7,20.6-17.3c2.5-0.6,4.9-0.5,7.2,0.6c0,0,0.3-0.8,0.6-2.2
			c2.9-10.5,16.8-56.5,38.4-63.5c1.8,0,1.8,43.3,10.1,93.6c0.2,1.2,0.4,2.4,0.6,3.5c3.1,17.1,7,34.9,12.5,52
			c3.2,10.5,7,20.5,11.5,30c3.5,7.7,7.5,15,11.9,21.8c0,0,0.2-6.2,0.7-16.5c0.2-5.5,0.6-12.1,0.9-19.7c0.7-13.2,1.5-29.1,2.5-46
			c0.1-0.5,0.1-1.1,0.2-1.5c2.2-34.9,5.3-73.8,9.3-101.6c4.7,1.6,9.5,3.4,14.6,5.3c26.1,56,68.8,102.9,138.6,118.7
			c-2.7-1.8-46.4-31.9-81.2-99.6c22,6.8,45.9,13.2,71.3,18c9,1.7,18.3,3.4,27.7,4.6c18,2.5,36.5,4.1,55.4,4.5
			c5.8,0.2,11.6,0.5,17.2,0c136-13.1,216.1-54.4,213.3-54.8c-26.9-4.6-195.2,30.8-297.9,9.6c-2.6-0.6-5.2-1.2-7.6-1.8
			c-40.2-11.5-50.7-40.9-50-43.6c0.1-0.4,0.4-0.8,0.9-1.1c16.1-10.5,225-98.5,244.5-98.5c2.6,0,5.6,0.2,8.7,0.6
			c69.1,8.1,254.3,99.6,258.5,104.4c14,6.7,45.4,81.6,10.4,107.4c-56.7,41.7-135.9,94.1-217.7,104.3c-91.1,11.6-266-53-275.3-54.8
			c-64.8-12.3-64,18.3-64,18.3c0.4,0.1,0.8,0.3,1.2,0.5c0.3,0.1,0.5,0.3,0.9,0.5c20,9.9,185,88.6,343.4,112.2
			c77,11.4,132.2,14.4,169.4,14.4C1953.2,1345.4,1972.1,1341,1972.1,1341z"/>
	</g>
	<g>
		<g>
			<polygon class="st3" points="1416.5,835.8 1521.3,842.5 1573.7,866.8 1486.4,875.9 			"/>
			<g>
				
					<image style="overflow:visible;" width="956" height="468" xlink:href="1CF00CEE.png"  transform="matrix(0.24 0 0 0.24 1381.3976 800.2589)">
				</image>
			</g>
			<polygon class="st3" points="1416.5,835.8 1521.3,842.5 1573.7,866.8 1486.4,875.9 			"/>
		</g>
		<g>
			<polygon class="st3" points="1919.6,832.4 1815.1,842.8 1763.6,868.9 1851.1,875 			"/>
			<g>
				
					<image style="overflow:visible;" width="951" height="479" xlink:href="1CF00CE9.png"  transform="matrix(0.24 0 0 0.24 1726.2776 796.8989)">
				</image>
			</g>
			<polygon class="st3" points="1919.6,832.4 1815.1,842.8 1763.6,868.9 1851.1,875 			"/>
		</g>
	</g>
	<path class="st1" d="M1381.9,1048.5c-1.8-1.2-2.6-1.9-2.6-1.9s0.7-0.1,1.9-0.3C1381.3,1047,1381.5,1047.8,1381.9,1048.5z"/>
	<path class="st3" d="M1288.6,802.7c-5.1,86-22.7,233.8,7,424.6c0,0-25-49.9-29.3-178.8s11.3-256.6,11.3-256.6
		S1280,793.6,1288.6,802.7z"/>
	<path class="st3" d="M1351.3,903.3c0,0,0.8,177.6,73.7,240.8c0,0-29.1-46.1-45.8-112.9C1363.5,968.6,1351.3,903.3,1351.3,903.3z"/>
	<path class="st3" d="M1989,911c0,0,4.2,255.8-8.7,343.5c0,0,23-80.4,25.7-206.3C2008.6,922.3,1989,911,1989,911z"/>
	<path class="st3" d="M1884,1072.7c-3.9-0.8-68.1,18.1-137.2,42.8c-48.9,17.5-131.6,41.7-210,34.5c-18.8-1.7-55.7-14-67-31l0,0
		c9,1.7,18.3,3.4,27.7,4.6c18,2.5,36.5,4.1,55.4,4.5c5.8,0.2,11.6,0.5,17.2,0c136-13.1,216.1-54.4,213.3-54.8
		C1783.3,1073.2,1844,1064,1884,1072.7z"/>
	<path class="st3" d="M1591,1444.4c2.5,1,4.7,1.9,6.7,2.7c-1.6,6.2-4.7,11-9.1,14.8c-24.3,2.6-71.6-4.6-158.2-53.9
		c-147.3-84-223.8-173.8-256.6-220.2c5-10.8,14.1-28.4,24.1-42.2c7.2-9.9,15-17.7,22.2-19.3c2.5-0.6,4.9-0.5,7.2,0.6
		c0,0,0.2-0.8,0.6-2.2c13,8.2,31.3,134.8,88.3,179.8C1399.9,1378.6,1509.7,1421.2,1591,1444.4z"/>
	<path class="st3" d="M1908.8,1345.5c-39.8,16.3-80.8,31.9-248.9,0.2c-90.7-17.1-167.9-53.4-212.3-71.1c-10-4-44.9-20.7-70.7-33.1
		c-17.8-8.6-29.4-28.4-29.4-50.3v0c0,0,48.1,27.5,48.5,27.7c20,9.9,185,88.6,343.4,112.1C1816.5,1342.5,1871.6,1345.6,1908.8,1345.5
		z"/>
	<path class="st2" d="M2569.4,1032.2c0,0-135.8,1.6-184,6.9c-48.1,5.3-163.6,71.5-163.6,71.5l-116.7-49.3l-5.4-80.6l273.6,0.4
		L2569.4,1032.2z"/>
	<path class="st3" d="M2326.2,875.7c0,0,188.1-153.7,367.8-90.7c-131,9.7-226,143-226,143S2358.7,939.7,2326.2,875.7z"/>
	<path class="st2" d="M2468.1,928c0,0-253.9-3.7-371.8,1.1l-2.5-36.3l232.4-17.1L2468.1,928z"/>
	<path class="st3" d="M1682.1,938.4L1477.9,1081c-40.2-11.5-50.7-40.9-50-43.6c0.1-0.4,0.4-0.8,0.9-1.1
		c16.1-10.5,225-98.5,244.5-98.5C1675.9,937.8,1678.9,938,1682.1,938.4z"/>
	<path class="st3" d="M1301,1240.1L1252,1205l-52.4-61.6c6.8-8.9,14-15.7,20.6-17.3c2.5-0.6,4.9-0.5,7.2,0.6c0,0,0.3-0.8,0.6-2.2
		c2.9-10.5,16.8-56.5,38.4-63.5c1.8,0,1.8,43.3,10.1,93.6c0.2,1.2,0.4,2.4,0.6,3.5c3.1,17.1,7,34.9,12.5,52
		C1292.8,1220.6,1296.6,1230.7,1301,1240.1z"/>
</g>
</svg>
